# xmcd CD database file
#
# Track frame offsets:
#	182
#	13390
#	25020
#	38445
#	52587
#	65112
#	76990
#	94230
#	109342
#	124645
#	134882
#	149932
#
# Disc length: 2154 seconds
#
# Revision: 1
# Processed by: cddbd v1.5.2PL0 Copyright (c) Steve Scherf et al.
# Submitted via: CDex 2.13
#
DISCID=ac08680c
DTITLE=Kenny Rogers - Kenny Rogers
DYEAR=1994
DGENRE=Country
TTITLE0=Ruby Don't Take Your Love To Town
TTITLE1=Me and Bobby McGee
TTITLE2=Shine On Ruby Mountain
TTITLE3=Sunshine
TTITLE4=Reuben James
TTITLE5=Elvira
TTITLE6=Something's Burning
TTITLE7=Conditions (Just Dropped In)
TTITLE8=For The Good Times
TTITLE9=Where Does Rosie Go
TTITLE10=Tell It All Brother
TTITLE11=What Am I Gonna Do
EXTD=YEAR: 1994
EXTT0=
EXTT1=
EXTT2=
EXTT3=
EXTT4=
EXTT5=
EXTT6=
EXTT7=
EXTT8=
EXTT9=
EXTT10=
EXTT11=
PLAYORDER=
